<?xml version="1.0" encoding="UTF-8" standalone="no"?>
<!-- Created with Inkscape (http://www.inkscape.org/) -->

<svg
   xmlns:dc="http://purl.org/dc/elements/1.1/"
   xmlns:cc="http://creativecommons.org/ns#"
   xmlns:rdf="http://www.w3.org/1999/02/22-rdf-syntax-ns#"
   xmlns:svg="http://www.w3.org/2000/svg"
   xmlns="http://www.w3.org/2000/svg"
   xmlns:sodipodi="http://sodipodi.sourceforge.net/DTD/sodipodi-0.dtd"
   xmlns:inkscape="http://www.inkscape.org/namespaces/inkscape"
   width="20mm"
   height="30mm"
   viewBox="0 0 20 30"
   version="1.1"
   id="svg8"
   sodipodi:docname="arrow.svg"
   inkscape:version="0.92.1 r15371">
  <defs
     id="defs2" />
  <sodipodi:namedview
     id="base"
     pagecolor="#ffffff"
     bordercolor="#666666"
     borderopacity="1.0"
     inkscape:pageopacity="0.0"
     inkscape:pageshadow="2"
     inkscape:zoom="2.8284271"
     inkscape:cx="-20.128685"
     inkscape:cy="49.227824"
     inkscape:document-units="mm"
     inkscape:current-layer="layer1"
     showgrid="false"
     showguides="true"
     inkscape:guide-bbox="true"
     inkscape:window-width="1366"
     inkscape:window-height="768"
     inkscape:window-x="0"
     inkscape:window-y="900"
     inkscape:window-maximized="0"
     units="px"
     inkscape:pagecheckerboard="true">
    <sodipodi:guide
       position="-179.16071,238.12501"
       orientation="1,0"
       id="guide4499"
       inkscape:locked="false" />
    <sodipodi:guide
       position="-134.55952,187.4762"
       orientation="0,1"
       id="guide4501"
       inkscape:locked="false" />
    <sodipodi:guide
       position="-104.32143,104.32143"
       orientation="0,1"
       id="guide4503"
       inkscape:locked="false" />
    <sodipodi:guide
       position="-93.738093,151.19048"
       orientation="1,0"
       id="guide4505"
       inkscape:locked="false" />
  </sodipodi:namedview>
  <metadata
     id="metadata5">
    <rdf:RDF>
      <cc:Work
         rdf:about="">
        <dc:format>image/svg+xml</dc:format>
        <dc:type
           rdf:resource="http://purl.org/dc/dcmitype/StillImage" />
        <dc:title></dc:title>
      </cc:Work>
    </rdf:RDF>
  </metadata>
  <g
     inkscape:label="Layer 1"
     inkscape:groupmode="layer"
     id="layer1"
     transform="translate(0,-267)">
    <path
       style="fill:#0076a7;fill-opacity:1;stroke-width:0.11502525;opacity:1"
       d="m 9.9171163,272.45222 c -0.145536,0 -0.291071,0.0559 -0.402588,0.16737 l -1.818613,1.81862 c -0.223033,0.22303 -0.223033,0.58214 0,0.80518 l 5.0885207,5.08851 H 0.84991678 c -0.3154173,0 -0.5692838,0.25387 -0.5692838,0.56928 v 2.5719 c 0,0.31542 0.2538665,0.56929 0.5692838,0.56929 H 12.784436 l -5.0885207,5.08851 c -0.223033,0.22304 -0.223033,0.58215 0,0.80518 l 1.818613,1.81862 c 0.223034,0.22303 0.5821417,0.22303 0.8051767,0 l 7.34634,-7.34635 1.818613,-1.81861 c 0.111516,-0.11151 0.167145,-0.25705 0.167145,-0.40259 0,-0.0364 -0.0034,-0.0728 -0.01033,-0.10873 -0.02091,-0.10756 -0.07317,-0.21021 -0.156811,-0.29385 l -1.818613,-1.81862 -7.34634,-7.34634 c -0.111517,-0.11151 -0.257053,-0.16737 -0.4025887,-0.16737 z"
       id="rect4706"
       inkscape:connector-curvature="0"
       sodipodi:nodetypes="sccccsssscccccccsccccss" />
  </g>
</svg>
